<svg width="108" height="567" viewBox="0 0 108 567" fill="none" xmlns="http://www.w3.org/2000/svg">
<path d="M4.26167e-06 97.4958L100.688 -4.40119e-06L108 8.45339L7.875 105.386L4.26167e-06 97.4958Z" fill="#1C2933"/>
<path d="M4.26167e-06 154.98L100.688 57.4844L108 65.9378L7.875 162.87L4.26167e-06 154.98Z" fill="#1C2933"/>
<path d="M4.26167e-06 213.025L100.688 115.529L108 123.419L7.875 220.915L4.26167e-06 213.025Z" fill="#1C2933"/>
<path d="M4.26168e-06 270.509L100.688 173.014L108 181.467L7.875 278.399L4.26168e-06 270.509Z" fill="#1C2933"/>
<path d="M4.23704e-06 327.991L100.688 231.059L108 238.948L7.875 335.881L4.23704e-06 327.991Z" fill="#1C2933"/>
<path d="M4.26167e-06 386.039L100.688 288.543L108 296.996L7.875 393.929L4.26167e-06 386.039Z" fill="#1C2933"/>
<path d="M4.26167e-06 443.521L100.688 346.025L108 354.479L7.875 451.411L4.26167e-06 443.521Z" fill="#1C2933"/>
<path d="M4.23704e-06 501.004L100.688 404.072L108 411.962L7.875 509.458L4.23704e-06 501.004Z" fill="#1C2933"/>
<path d="M4.26167e-06 559.05L100.688 461.555L108 470.008L7.875 566.94L4.26167e-06 559.05Z" fill="#1C2933"/>
</svg>
